<mxfile host="app.diagrams.net" modified="2022-11-14T14:41:28.913Z" agent="5.0 (Windows NT 10.0; Win64; x64) AppleWebKit/537.36 (KHTML, like Gecko) Chrome/107.0.0.0 Safari/537.36" etag="ES3RpIaiAGK0hxjMpvlS" version="20.5.3" type="github">
  <diagram id="GVMy0i5LG1JLVvTdhxN1" name="第 1 页">
    <mxGraphModel dx="462" dy="695" grid="1" gridSize="10" guides="1" tooltips="1" connect="1" arrows="1" fold="1" page="1" pageScale="1" pageWidth="1200" pageHeight="1600" math="0" shadow="0">
      <root>
        <mxCell id="0" />
        <mxCell id="1" parent="0" />
        <mxCell id="QGO5pkp98FbQ010PFB9G-11" style="edgeStyle=orthogonalEdgeStyle;rounded=0;orthogonalLoop=1;jettySize=auto;html=1;entryX=0.5;entryY=0;entryDx=0;entryDy=0;" edge="1" parent="1" source="QGO5pkp98FbQ010PFB9G-1" target="QGO5pkp98FbQ010PFB9G-8">
          <mxGeometry relative="1" as="geometry" />
        </mxCell>
        <mxCell id="QGO5pkp98FbQ010PFB9G-1" value="系统启动" style="rounded=1;whiteSpace=wrap;html=1;" vertex="1" parent="1">
          <mxGeometry x="180" y="330" width="120" height="60" as="geometry" />
        </mxCell>
        <mxCell id="QGO5pkp98FbQ010PFB9G-15" value="" style="edgeStyle=orthogonalEdgeStyle;rounded=0;orthogonalLoop=1;jettySize=auto;html=1;" edge="1" parent="1" source="QGO5pkp98FbQ010PFB9G-8" target="QGO5pkp98FbQ010PFB9G-14">
          <mxGeometry relative="1" as="geometry" />
        </mxCell>
        <mxCell id="QGO5pkp98FbQ010PFB9G-20" value="" style="edgeStyle=orthogonalEdgeStyle;rounded=0;orthogonalLoop=1;jettySize=auto;html=1;" edge="1" parent="1" source="QGO5pkp98FbQ010PFB9G-8" target="QGO5pkp98FbQ010PFB9G-19">
          <mxGeometry relative="1" as="geometry" />
        </mxCell>
        <mxCell id="QGO5pkp98FbQ010PFB9G-8" value="是否有待检测人员" style="rhombus;whiteSpace=wrap;html=1;" vertex="1" parent="1">
          <mxGeometry x="200" y="440" width="80" height="80" as="geometry" />
        </mxCell>
        <mxCell id="QGO5pkp98FbQ010PFB9G-24" style="edgeStyle=orthogonalEdgeStyle;rounded=0;orthogonalLoop=1;jettySize=auto;html=1;entryX=0.5;entryY=0;entryDx=0;entryDy=0;" edge="1" parent="1" source="QGO5pkp98FbQ010PFB9G-14" target="QGO5pkp98FbQ010PFB9G-8">
          <mxGeometry relative="1" as="geometry">
            <Array as="points">
              <mxPoint x="370" y="410" />
              <mxPoint x="240" y="410" />
            </Array>
          </mxGeometry>
        </mxCell>
        <mxCell id="QGO5pkp98FbQ010PFB9G-14" value="等待" style="whiteSpace=wrap;html=1;" vertex="1" parent="1">
          <mxGeometry x="340" y="450" width="70" height="60" as="geometry" />
        </mxCell>
        <mxCell id="QGO5pkp98FbQ010PFB9G-16" value="否" style="text;html=1;align=center;verticalAlign=middle;resizable=0;points=[];autosize=1;strokeColor=none;fillColor=none;" vertex="1" parent="1">
          <mxGeometry x="290" y="450" width="40" height="30" as="geometry" />
        </mxCell>
        <mxCell id="QGO5pkp98FbQ010PFB9G-26" style="edgeStyle=orthogonalEdgeStyle;rounded=0;orthogonalLoop=1;jettySize=auto;html=1;" edge="1" parent="1" source="QGO5pkp98FbQ010PFB9G-19" target="QGO5pkp98FbQ010PFB9G-25">
          <mxGeometry relative="1" as="geometry" />
        </mxCell>
        <mxCell id="QGO5pkp98FbQ010PFB9G-19" value="待检测人员将下巴固定在头部固定装置上" style="whiteSpace=wrap;html=1;" vertex="1" parent="1">
          <mxGeometry x="180" y="560" width="120" height="50" as="geometry" />
        </mxCell>
        <mxCell id="QGO5pkp98FbQ010PFB9G-23" value="是" style="text;html=1;align=center;verticalAlign=middle;resizable=0;points=[];autosize=1;strokeColor=none;fillColor=none;" vertex="1" parent="1">
          <mxGeometry x="190" y="520" width="40" height="30" as="geometry" />
        </mxCell>
        <mxCell id="QGO5pkp98FbQ010PFB9G-28" style="edgeStyle=orthogonalEdgeStyle;rounded=0;orthogonalLoop=1;jettySize=auto;html=1;" edge="1" parent="1" source="QGO5pkp98FbQ010PFB9G-25" target="QGO5pkp98FbQ010PFB9G-27">
          <mxGeometry relative="1" as="geometry" />
        </mxCell>
        <mxCell id="QGO5pkp98FbQ010PFB9G-25" value="根据光学传感器信息，数据处理装置计算口腔在传动装置坐标系中的位置，并控制传动装置移动到合适位置" style="whiteSpace=wrap;html=1;" vertex="1" parent="1">
          <mxGeometry x="180" y="625" width="120" height="95" as="geometry" />
        </mxCell>
        <mxCell id="QGO5pkp98FbQ010PFB9G-30" style="edgeStyle=orthogonalEdgeStyle;rounded=0;orthogonalLoop=1;jettySize=auto;html=1;" edge="1" parent="1" source="QGO5pkp98FbQ010PFB9G-27" target="QGO5pkp98FbQ010PFB9G-29">
          <mxGeometry relative="1" as="geometry" />
        </mxCell>
        <mxCell id="QGO5pkp98FbQ010PFB9G-27" value="数据处理装置驱动直线电机进行核酸采样，同时分析压力传感器数据，若偏离设定值，则联合调整传动装置和直线电机。" style="whiteSpace=wrap;html=1;" vertex="1" parent="1">
          <mxGeometry x="180" y="740" width="120" height="95" as="geometry" />
        </mxCell>
        <mxCell id="QGO5pkp98FbQ010PFB9G-31" style="edgeStyle=orthogonalEdgeStyle;rounded=0;orthogonalLoop=1;jettySize=auto;html=1;entryX=0.5;entryY=0;entryDx=0;entryDy=0;" edge="1" parent="1" source="QGO5pkp98FbQ010PFB9G-29" target="QGO5pkp98FbQ010PFB9G-8">
          <mxGeometry relative="1" as="geometry">
            <Array as="points">
              <mxPoint x="440" y="877" />
              <mxPoint x="440" y="400" />
              <mxPoint x="240" y="400" />
            </Array>
          </mxGeometry>
        </mxCell>
        <mxCell id="QGO5pkp98FbQ010PFB9G-29" value="采样完毕" style="whiteSpace=wrap;html=1;" vertex="1" parent="1">
          <mxGeometry x="190" y="853" width="100" height="47" as="geometry" />
        </mxCell>
      </root>
    </mxGraphModel>
  </diagram>
</mxfile>
